<?xml version="1.0" standalone="no"?><!DOCTYPE svg PUBLIC "-//W3C//DTD SVG 1.1//EN" "http://www.w3.org/Graphics/SVG/1.1/DTD/svg11.dtd"><svg class="icon" width="16px" height="16.00px" viewBox="0 0 1024 1024" version="1.1" xmlns="http://www.w3.org/2000/svg"><path fill="#8a8a8a" d="M680.71 915.22H343.29c-39.53 0-76.37-21.27-96.12-55.52L78.46 567.49c-19.75-34.22-19.75-76.77 0-110.99l168.71-292.2c19.75-34.24 56.6-55.52 96.12-55.52h337.42c39.53 0 76.37 21.27 96.12 55.52l168.71 292.2c19.75 34.22 19.75 76.77 0 110.99L776.83 859.7c-19.75 34.24-56.59 55.52-96.12 55.52zM343.29 175.69c-15.7 0-30.35 8.43-38.21 22.04l-168.71 292.2c-7.84 13.61-7.84 30.52 0 44.13l168.71 292.2c7.86 13.61 22.51 22.04 38.21 22.04h337.42c15.7 0 30.35-8.43 38.21-22.04l168.71-292.2c7.84-13.61 7.84-30.52 0-44.13l-168.71-292.2c-7.86-13.61-22.51-22.04-38.21-22.04H343.29z"  /></svg>